<?xml version="1.0" standalone="no"?>
<!DOCTYPE svg PUBLIC "-//W3C//DTD SVG 20010904//EN"
 "http://www.w3.org/TR/2001/REC-SVG-20010904/DTD/svg10.dtd">
<svg version="1.0" xmlns="http://www.w3.org/2000/svg"
 width="363.000000pt" height="102.000000pt" viewBox="0 0 363.000000 102.000000"
 preserveAspectRatio="xMidYMid meet">

<g transform="translate(0.000000,102.000000) scale(0.100000,-0.100000)"
fill="#000000" stroke="none">
<path d="M0 510 l0 -510 1815 0 1815 0 0 510 0 510 -1815 0 -1815 0 0 -510z
m2317 185 c52 -110 106 -225 121 -255 14 -30 28 -58 30 -62 2 -5 -16 -8 -41
-8 l-44 0 -28 65 -27 65 -148 0 -148 0 -27 -65 c-27 -64 -29 -65 -66 -65 l-38
0 63 143 c34 78 87 197 117 265 l54 122 44 -2 43 -3 95 -200z m-1817 160 l0
-35 -155 0 -155 0 0 -90 0 -90 138 0 139 0 -5 -30 -4 -30 -134 0 -133 0 -3
-107 -3 -108 -32 -3 -33 -3 0 265 0 266 190 0 190 0 0 -35z m2110 -90 l0 -24
46 24 c143 76 307 -23 307 -185 0 -92 -44 -162 -122 -196 -67 -28 -166 -11
-219 38 -21 21 -22 21 -21 2 1 -10 1 -57 1 -104 l-2 -85 -30 -1 -30 -1 0 278
0 279 35 0 c31 0 35 -3 35 -25z m530 -7 c0 -29 1 -30 18 -15 29 27 89 47 137
47 149 0 240 -167 170 -313 -37 -79 -132 -120 -228 -98 -30 6 -64 21 -75 31
l-21 20 -3 -102 -3 -103 -32 -3 -33 -3 0 285 0 286 35 0 c33 0 35 -2 35 -32z
m-1825 -2 c81 -40 81 -39 56 -75 l-23 -32 -33 29 c-46 41 -94 48 -150 23 -55
-24 -85 -70 -85 -129 0 -76 40 -127 110 -143 49 -11 112 3 139 30 17 17 19 17
41 1 l24 -18 -35 -31 c-80 -74 -227 -65 -302 18 -153 169 50 427 258 327z
m406 13 c68 -23 115 -85 128 -169 l8 -48 -51 -6 c-28 -3 -104 -6 -168 -6 -65
0 -118 -3 -118 -7 0 -5 9 -23 20 -41 43 -70 161 -91 225 -40 l27 21 21 -21
c21 -22 21 -22 2 -37 -60 -47 -160 -62 -230 -35 -102 39 -160 147 -131 244 20
65 49 101 108 130 56 28 105 33 159 15z m-862 -28 c52 -37 61 -71 61 -231 l0
-140 -36 0 c-32 0 -35 2 -29 21 l7 22 -28 -20 c-39 -27 -67 -35 -124 -35 -88
1 -140 45 -140 118 0 43 24 85 62 105 11 6 63 15 115 20 53 5 98 11 101 13 9
10 -9 56 -29 75 -40 37 -134 35 -194 -5 -20 -13 -23 -12 -34 12 -14 31 -17 28
39 54 64 30 181 25 229 -9z m-364 -633 c-1 -13 -5 -22 -8 -20 -4 1 -88 2 -187
2 -173 0 -180 1 -180 20 0 19 7 20 188 20 l189 0 -2 -22z"/>
<path d="M2118 695 l-56 -125 114 0 c63 0 114 4 114 9 0 12 -107 241 -113 241
-2 0 -29 -56 -59 -125z"/>
<path d="M2700 723 c-49 -18 -90 -83 -90 -143 0 -112 105 -179 204 -130 71 34
98 126 60 206 -26 55 -114 89 -174 67z"/>
<path d="M3225 716 c-58 -26 -79 -60 -83 -135 -4 -61 -2 -70 23 -99 42 -50
119 -65 182 -35 48 22 73 66 73 127 0 115 -96 186 -195 142z"/>
<path d="M1593 704 c-31 -16 -73 -69 -73 -93 0 -8 43 -11 140 -11 l140 0 -20
40 c-11 22 -31 46 -43 55 -37 24 -107 28 -144 9z"/>
<path d="M684 536 c-46 -20 -59 -69 -26 -99 18 -16 37 -20 91 -18 45 1 101 57
101 100 l0 31 -67 0 c-38 -1 -82 -7 -99 -14z"/>
</g>
</svg>
